# Blender v2.57 (sub 1) OBJ File: 'roomTextures.blend'
# www.blender.org
mtllib roomTex.mtl
o Room_Plane.002
v -12.499996 0.000001 12.082271
v -12.499990 -0.000001 -12.082277
v -12.499990 14.999999 -12.082278
v -12.499996 15.000001 12.082270
v -12.499990 7.237113 -12.082277
v -12.499996 7.237114 12.082271
v -4.166665 0.000001 12.082271
v 4.166669 0.000001 12.082271
v 12.500003 0.000001 12.082271
v -4.166662 -0.000001 -12.082275
v 4.166672 -0.000001 -12.082275
v 12.500006 -0.000001 -12.082275
v -4.166662 14.999999 -12.082276
v 4.166672 14.999999 -12.082276
v 12.500006 14.999999 -12.082276
v -4.166665 15.000001 12.082270
v 4.166669 15.000001 12.082270
v 12.500003 15.000001 12.082270
v -11.594604 0.000001 12.082270
v -3.261270 0.000001 12.082270
v 5.072064 0.000001 12.082270
v -4.573892 0.000001 12.082271
v 3.759442 0.000001 12.082271
v 12.092776 0.000001 12.082271
v -11.594590 -0.000001 -12.082277
v -3.261256 -0.000001 -12.082277
v 5.072078 -0.000001 -12.082277
v -4.573882 -0.000001 -12.082275
v 3.759452 -0.000001 -12.082275
v 12.092786 -0.000001 -12.082275
v -11.594590 14.999999 -12.082278
v -3.261256 14.999999 -12.082278
v 5.072078 14.999999 -12.082278
v -4.573882 14.999999 -12.082276
v 3.759452 14.999999 -12.082276
v 12.092786 14.999999 -12.082276
v -11.594604 15.000001 12.082269
v -3.261270 15.000001 12.082269
v 5.072064 15.000001 12.082269
v -4.573892 15.000001 12.082270
v 3.759442 15.000001 12.082270
v 12.092776 15.000001 12.082270
v -4.573880 7.237113 -12.082275
v 3.759454 7.237113 -12.082275
v 12.092788 7.237113 -12.082275
v -11.594604 7.237114 12.082270
v -3.261270 7.237114 12.082270
v 5.072064 7.237114 12.082270
v -4.573892 7.237114 12.082271
v 3.759442 7.237114 12.082271
v 12.092776 7.237114 12.082271
v -12.499990 14.193651 -12.082278
v -12.499996 14.193653 12.082270
v -4.166662 14.193651 -12.082276
v 4.166672 14.193651 -12.082276
v 12.500006 14.193651 -12.082276
v -4.166665 14.193653 12.082270
v 4.166669 14.193653 12.082270
v 12.500003 14.193653 12.082270
v -4.573881 14.193651 -12.082276
v 3.759453 14.193651 -12.082276
v 12.092788 14.193651 -12.082276
v -11.594591 14.193651 -12.082278
v -3.261257 14.193651 -12.082278
v 5.072077 14.193651 -12.082278
v -11.594604 14.193653 12.082269
v -3.261270 14.193653 12.082269
v 5.072064 14.193653 12.082269
v -4.573892 14.193653 12.082270
v 3.759442 14.193653 12.082270
v 12.092776 14.193653 12.082270
v -12.499990 0.806348 -12.082277
v -12.499996 0.806349 12.082271
v -4.166662 0.806348 -12.082275
v 4.166672 0.806348 -12.082275
v 12.500006 0.806348 -12.082275
v -4.166665 0.806349 12.082271
v 4.166669 0.806349 12.082271
v 12.500003 0.806349 12.082271
v -4.573881 0.806348 -12.082275
v 3.759453 0.806348 -12.082275
v 12.092788 0.806348 -12.082275
v -11.594591 0.806348 -12.082277
v -3.261257 0.806348 -12.082277
v 5.072077 0.806348 -12.082277
v -11.594604 0.806349 12.082270
v -3.261270 0.806349 12.082270
v 5.072064 0.806349 12.082270
v -4.573892 0.806349 12.082271
v 3.759442 0.806349 12.082271
v 12.092776 0.806349 12.082271
v -12.499990 1.317749 -12.082277
v -12.499996 1.317750 12.082271
v -4.166662 7.237113 -12.082275
v 4.166673 7.237113 -12.082275
v 12.500006 7.237113 -12.082275
v -4.166662 1.317749 -12.082275
v 4.166672 1.317749 -12.082275
v 12.500006 1.317749 -12.082275
v -4.166665 7.237114 12.082271
v 4.166669 7.237114 12.082271
v 12.500003 7.237114 12.082271
v -4.166665 1.317750 12.082271
v 4.166669 1.317750 12.082271
v 12.500003 1.317750 12.082271
v -4.573881 1.317749 -12.082275
v 3.759454 1.317749 -12.082275
v 12.092788 1.317749 -12.082275
v -11.594591 7.237113 -12.082277
v -3.261257 7.237113 -12.082277
v 5.072077 7.237113 -12.082277
v -11.594591 1.317749 -12.082277
v -3.261257 1.317749 -12.082277
v 5.072077 1.317749 -12.082277
v -11.594604 1.317750 12.082270
v -3.261270 1.317750 12.082270
v 5.072064 1.317750 12.082270
v -4.573892 1.317750 12.082271
v 3.759442 1.317750 12.082271
v 12.092776 1.317750 12.082271
v -12.499990 7.712785 -12.082277
v -12.499990 13.732355 -12.082278
v -12.499996 7.712786 12.082271
v -12.499996 13.732357 12.082270
v -4.166662 7.712785 -12.082275
v 4.166673 7.712785 -12.082275
v 12.500006 7.712785 -12.082275
v -4.166662 13.732355 -12.082276
v 4.166672 13.732355 -12.082276
v 12.500006 13.732355 -12.082276
v -4.166665 7.712786 12.082271
v 4.166669 7.712786 12.082271
v 12.500003 7.712786 12.082271
v -4.166665 13.732357 12.082270
v 4.166669 13.732357 12.082270
v 12.500003 13.732357 12.082270
v -4.573880 7.712785 -12.082275
v 3.759454 7.712785 -12.082275
v 12.092788 7.712785 -12.082275
v -4.573881 13.732355 -12.082276
v 3.759454 13.732355 -12.082276
v 12.092788 13.732355 -12.082276
v -11.594591 7.712785 -12.082277
v -3.261257 7.712785 -12.082277
v 5.072077 7.712785 -12.082277
v -11.594591 13.732355 -12.082278
v -3.261257 13.732355 -12.082278
v 5.072077 13.732355 -12.082278
v -11.594604 7.712786 12.082270
v -3.261270 7.712786 12.082270
v 5.072064 7.712786 12.082270
v -11.594604 13.732357 12.082269
v -3.261270 13.732357 12.082269
v 5.072064 13.732357 12.082269
v -4.573892 7.712786 12.082271
v 3.759442 7.712786 12.082271
v 12.092776 7.712786 12.082271
v -4.573892 13.732357 12.082270
v 3.759442 13.732357 12.082270
v 12.092776 13.732357 12.082270
v -8.328634 0.000001 12.082271
v 0.004700 0.000001 12.082271
v 8.338034 0.000001 12.082271
v -7.839851 0.000001 12.082271
v 0.493483 0.000001 12.082271
v 8.826818 0.000001 12.082271
v -8.328631 -0.000001 -12.082277
v 0.004703 -0.000001 -12.082277
v 8.338037 -0.000001 -12.082277
v -7.839849 -0.000001 -12.082275
v 0.493485 -0.000001 -12.082275
v 8.826819 -0.000001 -12.082275
v -8.328631 14.999999 -12.082278
v 0.004703 14.999999 -12.082278
v 8.338037 14.999999 -12.082278
v -7.839849 14.999999 -12.082276
v 0.493485 14.999999 -12.082276
v 8.826819 14.999999 -12.082276
v -8.328634 15.000001 12.082270
v 0.004700 15.000001 12.082270
v 8.338034 15.000001 12.082270
v -7.839851 15.000001 12.082270
v 0.493483 15.000001 12.082270
v 8.826818 15.000001 12.082270
v -8.328634 7.237114 12.082270
v 0.004700 7.237114 12.082270
v 8.338034 7.237114 12.082270
v -7.839851 7.237114 12.082271
v 0.493483 7.237114 12.082271
v 8.826818 7.237114 12.082271
v -7.839849 14.193651 -12.082276
v 0.493485 14.193651 -12.082276
v 8.826819 14.193651 -12.082276
v -8.328631 14.193651 -12.082278
v 0.004703 14.193651 -12.082278
v 8.338037 14.193651 -12.082278
v -8.328634 14.193653 12.082269
v 0.004700 14.193653 12.082269
v 8.338034 14.193653 12.082269
v -7.839851 14.193653 12.082270
v 0.493483 14.193653 12.082270
v 8.826818 14.193653 12.082270
v -7.839849 0.806348 -12.082275
v 0.493485 0.806348 -12.082275
v 8.826819 0.806348 -12.082275
v -8.328631 0.806348 -12.082277
v 0.004703 0.806348 -12.082277
v 8.338037 0.806348 -12.082277
v -8.328634 0.806349 12.082270
v 0.004700 0.806349 12.082270
v 8.338034 0.806349 12.082270
v -7.839851 0.806349 12.082271
v 0.493483 0.806349 12.082271
v 8.826818 0.806349 12.082271
v -7.839849 1.317750 -12.082275
v 0.493485 1.317750 -12.082275
v 8.826819 1.317750 -12.082275
v -8.328631 1.317750 -12.082277
v 0.004703 1.317750 -12.082277
v 8.338037 1.317750 -12.082277
v -8.328634 1.317751 12.082270
v 0.004700 1.317751 12.082270
v 8.338034 1.317751 12.082270
v -7.839851 1.317751 12.082271
v 0.493483 1.317751 12.082271
v 8.826818 1.317751 12.082271
v -7.839849 13.732355 -12.082276
v 0.493485 13.732355 -12.082276
v 8.826819 13.732355 -12.082276
v -8.328631 13.732355 -12.082278
v 0.004703 13.732355 -12.082278
v 8.338037 13.732355 -12.082278
v -7.839849 7.712785 -12.082275
v 0.493485 7.712785 -12.082275
v 8.826819 7.712785 -12.082275
v -8.328631 7.712785 -12.082277
v 0.004703 7.712785 -12.082277
v 8.338037 7.712785 -12.082277
v -8.328634 13.732357 12.082269
v 0.004700 13.732357 12.082269
v 8.338034 13.732357 12.082269
v -7.839851 13.732357 12.082270
v 0.493483 13.732357 12.082270
v 8.826818 13.732357 12.082270
v -8.328634 7.712786 12.082270
v 0.004700 7.712786 12.082270
v 8.338034 7.712786 12.082270
v -7.839851 7.712786 12.082271
v 0.493483 7.712786 12.082271
v 8.826818 7.712786 12.082271
v -7.839849 7.237113 -12.082275
v 0.493485 7.237113 -12.082275
v 8.826819 7.237113 -12.082275
v -8.328631 7.237113 -12.082277
v 0.004703 7.237113 -12.082277
v 8.338037 7.237113 -12.082277
v -8.328634 13.732357 12.917720
v 0.004700 13.732357 12.917720
v 8.338034 13.732357 12.917720
v -8.328634 7.712786 12.917721
v 0.004700 7.712786 12.917721
v 8.338034 7.712786 12.917721
v -7.839851 13.732357 12.917720
v 0.493483 13.732357 12.917720
v 8.826818 13.732357 12.917720
v -7.839851 7.712786 12.917721
v 0.493483 7.712786 12.917721
v 8.826818 7.712786 12.917721
v -8.328634 7.237114 12.917721
v 0.004700 7.237114 12.917721
v 8.338034 7.237114 12.917721
v -8.328634 1.317751 12.917721
v 0.004700 1.317751 12.917721
v 8.338034 1.317751 12.917721
v -7.839851 7.237114 12.917721
v 0.493483 7.237114 12.917721
v 8.826818 7.237114 12.917721
v -7.839851 1.317751 12.917721
v 0.493483 1.317751 12.917721
v 8.826818 1.317751 12.917721
v -4.573892 7.712786 12.917721
v 3.759442 7.712786 12.917721
v 12.092776 7.712786 12.917721
v -11.594604 7.712786 12.917721
v -3.261270 7.712786 12.917721
v 5.072064 7.712786 12.917721
v -4.573892 13.732357 12.917720
v 3.759442 13.732357 12.917720
v 12.092776 13.732357 12.917720
v -11.594604 13.732357 12.917720
v -3.261270 13.732357 12.917720
v 5.072064 13.732357 12.917720
v -4.573892 1.317750 12.917721
v 3.759442 1.317750 12.917721
v 12.092776 1.317750 12.917721
v -11.594604 1.317750 12.917721
v -3.261270 1.317750 12.917721
v 5.072064 1.317750 12.917721
v -4.573892 7.237114 12.917721
v 3.759442 7.237114 12.917721
v 12.092776 7.237114 12.917721
v -11.594604 7.237114 12.917721
v -3.261270 7.237114 12.917721
v 5.072064 7.237114 12.917721
vn 0.000000 -1.000000 0.000000
vn 0.000000 0.000000 -1.000000
vn -0.000002 0.000000 -1.000000
vn 0.000004 0.000000 -1.000000
vn 0.000001 0.000000 1.000000
vn 0.000000 -0.000000 1.000000
vn -0.000001 -0.000001 1.000000
vn -0.000000 -0.000001 1.000000
vn -0.000001 0.000001 1.000000
vn -0.000000 0.000001 1.000000
vn -0.000002 0.000000 1.000000
vn 1.000000 -0.000000 0.000000
vn -1.000000 -0.000000 0.000000
vn 0.000000 1.000000 0.000000
usemtl Parquet
s off
f 10//1 7//1 22//1 28//1
f 11//1 8//1 23//1 29//1
f 12//1 9//1 24//1 30//1
f 1//1 2//1 25//1 19//1
f 7//1 10//1 26//1 20//1
f 8//1 11//1 27//1 21//1
f 28//1 22//1 164//1 170//1
f 29//1 23//1 165//1 171//1
f 30//1 24//1 166//1 172//1
f 170//1 164//1 161//1 167//1
f 171//1 165//1 162//1 168//1
f 172//1 166//1 163//1 169//1
f 167//1 161//1 19//1 25//1
f 168//1 162//1 20//1 26//1
f 169//1 163//1 21//1 27//1
usemtl lead2
f 34//2 13//2 54//2 60//2
f 35//2 14//2 55//2 61//2
f 36//2 15//2 56//2 62//2
f 3//2 31//2 63//2 52//2
f 13//3 32//3 64//3 54//3
f 14//3 33//3 65//3 55//3
f 80//2 74//2 10//2 28//2
f 81//2 75//2 11//2 29//2
f 82//2 76//2 12//2 30//2
f 72//2 83//2 25//2 2//2
f 74//3 84//3 26//3 10//3
f 75//3 85//3 27//3 11//3
f 43//2 94//2 97//2 106//2
f 44//2 95//2 98//2 107//2
f 45//2 96//2 99//2 108//2
f 106//2 97//2 74//2 80//2
f 107//2 98//2 75//2 81//2
f 108//2 99//2 76//2 82//2
f 5//2 109//2 112//2 92//2
f 94//3 110//3 113//3 97//3
f 95//3 111//3 114//3 98//3
f 92//2 112//2 83//2 72//2
f 97//3 113//3 84//3 74//3
f 98//3 114//3 85//3 75//3
f 60//2 54//2 128//2 140//2
f 61//2 55//2 129//2 141//2
f 62//2 56//2 130//2 142//2
f 140//2 128//2 125//2 137//2
f 141//2 129//2 126//2 138//2
f 142//2 130//2 127//2 139//2
f 137//2 125//2 94//2 43//2
f 138//2 126//2 95//2 44//2
f 139//2 127//2 96//2 45//2
f 52//2 63//2 146//2 122//2
f 54//3 64//3 147//3 128//3
f 55//3 65//3 148//3 129//3
f 122//2 146//2 143//2 121//2
f 128//3 147//3 144//3 125//3
f 129//3 148//3 145//3 126//3
f 121//2 143//2 109//2 5//2
f 125//3 144//3 110//3 94//3
f 126//3 145//3 111//3 95//3
f 63//2 31//2 173//2 194//2
f 64//2 32//2 174//2 195//2
f 65//2 33//2 175//2 196//2
f 194//4 173//4 176//4 191//4
f 195//4 174//4 177//4 192//4
f 196//4 175//4 178//4 193//4
f 191//2 176//2 34//2 60//2
f 192//2 177//2 35//2 61//2
f 193//2 178//2 36//2 62//2
f 25//2 83//2 206//2 167//2
f 26//2 84//2 207//2 168//2
f 27//2 85//2 208//2 169//2
f 167//4 206//4 203//4 170//4
f 168//4 207//4 204//4 171//4
f 169//4 208//4 205//4 172//4
f 170//2 203//2 80//2 28//2
f 171//2 204//2 81//2 29//2
f 172//2 205//2 82//2 30//2
f 112//2 109//2 254//2 218//2
f 113//2 110//2 255//2 219//2
f 114//2 111//2 256//2 220//2
f 218//4 254//4 251//4 215//4
f 219//4 255//4 252//4 216//4
f 220//4 256//4 253//4 217//4
f 215//2 251//2 43//2 106//2
f 216//2 252//2 44//2 107//2
f 217//2 253//2 45//2 108//2
f 83//2 112//2 218//2 206//2
f 84//2 113//2 219//2 207//2
f 85//2 114//2 220//2 208//2
f 206//4 218//4 215//4 203//4
f 207//4 219//4 216//4 204//4
f 208//4 220//4 217//4 205//4
f 203//2 215//2 106//2 80//2
f 204//2 216//2 107//2 81//2
f 205//2 217//2 108//2 82//2
f 146//2 63//2 194//2 230//2
f 147//2 64//2 195//2 231//2
f 148//2 65//2 196//2 232//2
f 230//4 194//4 191//4 227//4
f 231//4 195//4 192//4 228//4
f 232//4 196//4 193//4 229//4
f 227//2 191//2 60//2 140//2
f 228//2 192//2 61//2 141//2
f 229//2 193//2 62//2 142//2
f 143//2 146//2 230//2 236//2
f 144//2 147//2 231//2 237//2
f 145//2 148//2 232//2 238//2
f 236//4 230//4 227//4 233//4
f 237//4 231//4 228//4 234//4
f 238//4 232//4 229//4 235//4
f 233//2 227//2 140//2 137//2
f 234//2 228//2 141//2 138//2
f 235//2 229//2 142//2 139//2
f 109//2 143//2 236//2 254//2
f 110//2 144//2 237//2 255//2
f 111//2 145//2 238//2 256//2
f 254//4 236//4 233//4 251//4
f 255//4 237//4 234//4 252//4
f 256//4 238//4 235//4 253//4
f 251//2 233//2 137//2 43//2
f 252//2 234//2 138//2 44//2
f 253//2 235//2 139//2 45//2
f 37//5 4//5 53//5 66//5
f 38//5 16//5 57//5 67//5
f 39//5 17//5 58//5 68//5
f 16//6 40//6 69//6 57//6
f 17//6 41//6 70//6 58//6
f 18//6 42//6 71//6 59//6
f 1//5 19//5 86//5 73//5
f 7//5 20//5 87//5 77//5
f 8//5 21//5 88//5 78//5
f 77//6 89//6 22//6 7//6
f 78//6 90//6 23//6 8//6
f 79//6 91//6 24//6 9//6
f 46//5 6//5 93//5 115//5
f 47//5 100//5 103//5 116//5
f 48//5 101//5 104//5 117//5
f 115//5 93//5 73//5 86//5
f 116//5 103//5 77//5 87//5
f 117//5 104//5 78//5 88//5
f 100//6 49//6 118//6 103//6
f 101//6 50//6 119//6 104//6
f 102//6 51//6 120//6 105//6
f 103//6 118//6 89//6 77//6
f 104//6 119//6 90//6 78//6
f 105//6 120//6 91//6 79//6
f 66//5 53//5 124//5 152//5
f 67//5 57//5 134//5 153//5
f 68//5 58//5 135//5 154//5
f 152//5 124//5 123//5 149//5
f 153//5 134//5 131//5 150//5
f 154//5 135//5 132//5 151//5
f 149//5 123//5 6//5 46//5
f 150//5 131//5 100//5 47//5
f 151//5 132//5 101//5 48//5
f 57//6 69//6 158//6 134//6
f 58//6 70//6 159//6 135//6
f 59//6 71//6 160//6 136//6
f 134//6 158//6 155//6 131//6
f 135//6 159//6 156//6 132//6
f 136//6 160//6 157//6 133//6
f 131//6 155//6 49//6 100//6
f 132//6 156//6 50//6 101//6
f 133//6 157//6 51//6 102//6
f 69//6 40//6 182//6 200//6
f 70//6 41//6 183//6 201//6
f 71//6 42//6 184//6 202//6
f 200//7 182//7 179//7 197//7
f 201//7 183//7 180//7 198//7
f 202//7 184//7 181//7 199//7
f 197//8 179//8 37//8 66//8
f 198//8 180//8 38//8 67//8
f 199//8 181//8 39//8 68//8
f 22//6 89//6 212//6 164//6
f 23//6 90//6 213//6 165//6
f 24//6 91//6 214//6 166//6
f 164//9 212//9 209//9 161//9
f 165//9 213//9 210//9 162//9
f 166//9 214//9 211//9 163//9
f 161//10 209//10 86//10 19//10
f 162//10 210//10 87//10 20//10
f 163//10 211//10 88//10 21//10
f 224//11 188//11 185//11 221//11
f 225//11 189//11 186//11 222//11
f 226//11 190//11 187//11 223//11
f 89//6 118//6 224//6 212//6
f 90//6 119//6 225//6 213//6
f 91//6 120//6 226//6 214//6
f 212//11 224//11 221//11 209//11
f 213//11 225//11 222//11 210//11
f 214//11 226//11 223//11 211//11
f 209//6 221//6 115//6 86//6
f 210//6 222//6 116//6 87//6
f 211//6 223//6 117//6 88//6
f 158//6 69//6 200//6 242//6
f 159//6 70//6 201//6 243//6
f 160//6 71//6 202//6 244//6
f 242//11 200//11 197//11 239//11
f 243//11 201//11 198//11 240//11
f 244//11 202//11 199//11 241//11
f 239//6 197//6 66//6 152//6
f 240//6 198//6 67//6 153//6
f 241//6 199//6 68//6 154//6
f 248//11 242//11 239//11 245//11
f 249//11 243//11 240//11 246//11
f 250//11 244//11 241//11 247//11
f 49//6 155//6 248//6 188//6
f 50//6 156//6 249//6 189//6
f 51//6 157//6 250//6 190//6
f 188//11 248//11 245//11 185//11
f 189//11 249//11 246//11 186//11
f 190//11 250//11 247//11 187//11
f 185//6 245//6 149//6 46//6
f 186//6 246//6 150//6 47//6
f 187//6 247//6 151//6 48//6
f 239//12 257//12 260//12 245//12
f 240//12 258//12 261//12 246//12
f 241//12 259//12 262//12 247//12
f 248//13 266//13 263//13 242//13
f 249//13 267//13 264//13 243//13
f 250//13 268//13 265//13 244//13
f 185//12 269//12 272//12 221//12
f 186//12 270//12 273//12 222//12
f 187//12 271//12 274//12 223//12
f 224//13 278//13 275//13 188//13
f 225//13 279//13 276//13 189//13
f 226//13 280//13 277//13 190//13
f 155//1 281//1 266//1 248//1
f 156//1 282//1 267//1 249//1
f 157//1 283//1 268//1 250//1
f 245//1 260//1 284//1 149//1
f 246//1 261//1 285//1 150//1
f 247//1 262//1 286//1 151//1
f 242//14 263//14 287//14 158//14
f 243//14 264//14 288//14 159//14
f 244//14 265//14 289//14 160//14
f 152//14 290//14 257//14 239//14
f 153//14 291//14 258//14 240//14
f 154//14 292//14 259//14 241//14
f 118//1 293//1 278//1 224//1
f 119//1 294//1 279//1 225//1
f 120//1 295//1 280//1 226//1
f 221//1 272//1 296//1 115//1
f 222//1 273//1 297//1 116//1
f 223//1 274//1 298//1 117//1
f 188//14 275//14 299//14 49//14
f 189//14 276//14 300//14 50//14
f 190//14 277//14 301//14 51//14
f 46//14 302//14 269//14 185//14
f 47//14 303//14 270//14 186//14
f 48//14 304//14 271//14 187//14
f 115//13 296//13 302//13 46//13
f 116//13 297//13 303//13 47//13
f 117//13 298//13 304//13 48//13
f 49//12 299//12 293//12 118//12
f 50//12 300//12 294//12 119//12
f 51//12 301//12 295//12 120//12
f 158//12 287//12 281//12 155//12
f 159//12 288//12 282//12 156//12
f 160//12 289//12 283//12 157//12
f 149//13 284//13 290//13 152//13
f 150//13 285//13 291//13 153//13
f 151//13 286//13 292//13 154//13
f 266//2 281//2 299//2 275//2
f 267//2 282//2 300//2 276//2
f 268//2 283//2 301//2 277//2
f 260//2 269//2 302//2 284//2
f 261//2 270//2 303//2 285//2
f 262//2 271//2 304//2 286//2
f 257//2 263//2 266//2 260//2
f 258//2 264//2 267//2 261//2
f 259//2 265//2 268//2 262//2
f 260//2 266//2 275//2 269//2
f 261//2 267//2 276//2 270//2
f 262//2 268//2 277//2 271//2
f 269//2 275//2 278//2 272//2
f 270//2 276//2 279//2 273//2
f 271//2 277//2 280//2 274//2
f 281//6 284//6 302//6 299//6
f 282//6 285//6 303//6 300//6
f 283//6 286//6 304//6 301//6
